<?xml version="1.0" encoding="UTF-8"?>
<svg width="18px" height="18px" viewBox="0 0 18 18" version="1.1" xmlns="http://www.w3.org/2000/svg" xmlns:xlink="http://www.w3.org/1999/xlink">
    <!-- Generator: Sketch 52.4 (67378) - http://www.bohemiancoding.com/sketch -->
    <title>编辑</title>
    <desc>Created with Sketch.</desc>
    <g id="Page-1" stroke="none" stroke-width="1" fill="none" fill-rule="evenodd">
        <g id="首页-特产订单填写-选择收货地址页面" transform="translate(-336.000000, -109.000000)" fill="#9B9B9B" stroke="#979797" stroke-width="0.5">
            <g id="编辑" transform="translate(337.000000, 110.000000)">
                <path d="M10.72247,15.9959921 L5.27753002,15.9959921 C2.37941681,15.9959921 0.00823328302,13.687423 0.00823328302,10.8658386 L0.00823328302,5.52192882 C0.00823328302,2.70034443 2.37941681,0.391775394 5.27753002,0.391775394 L10.72247,0.391775394 C10.9859348,0.391775394 11.161578,0.56278051 11.161578,0.819288175 C11.161578,1.07579584 10.9859348,1.24680096 10.72247,1.24680096 L5.27753002,1.24680096 C2.86243568,1.24680096 0.886449396,3.1706085 0.886449396,5.52192882 L0.886449396,10.8230874 C0.886449396,13.1744077 2.86243568,15.0982152 5.27753002,15.0982152 L10.72247,15.0982152 C13.1375643,15.0982152 15.1135506,13.1744077 15.1135506,10.8230874 L15.1135506,5.52192882 C15.1135506,5.26542115 15.2891938,5.09441604 15.5526587,5.09441604 C15.8161235,5.09441604 15.9917667,5.26542115 15.9917667,5.52192882 L15.9917667,10.8230874 C16.0356775,13.687423 13.6205832,15.9959921 10.72247,15.9959921 Z" id="Path"></path>
                <path d="M6.33138936,9.41229516 C6.19965694,9.41229516 6.11183532,9.36954388 6.02401372,9.28404133 C5.84837049,9.11303622 5.84837049,8.85652855 6.02401372,8.68552344 L14.806175,0.135267711 C14.9818182,-0.0357374053 15.245283,-0.0357374053 15.4209262,0.135267711 C15.5965695,0.306272827 15.5965695,0.562780491 15.4209262,0.733785626 L6.638765,9.28404133 C6.5509434,9.36954388 6.41921096,9.41229516 6.33138936,9.41229516 Z" id="Path"></path>
            </g>
        </g>
    </g>
</svg>