<?xml version="1.0" encoding="UTF-8"?>
<svg width="26px" height="28px" viewBox="0 0 26 28" version="1.1" xmlns="http://www.w3.org/2000/svg" xmlns:xlink="http://www.w3.org/1999/xlink">
    <!-- Generator: Sketch 52.4 (67378) - http://www.bohemiancoding.com/sketch -->
    <title>账单明细</title>
    <desc>Created with Sketch.</desc>
    <g id="Page-1" stroke="none" stroke-width="1" fill="none" fill-rule="evenodd">
        <g id="会员中心" transform="translate(-175.000000, -314.000000)">
            <g id="账单明细" transform="translate(175.000000, 314.000000)">
                <path d="M1.77380229,25.1187751 C1.77380229,26.7302341 3.06076585,27.9963805 4.69871947,27.9963805 L23.0671993,27.9963805 C24.7051529,27.9963805 25.9921164,26.7302341 25.9921164,25.1187751 L25.9921164,2.90366123 C25.9921164,1.29220219 24.7051529,0.0260557991 23.0671993,0.0260558318 L4.81571614,0.0260558318 C3.17776252,0.0260558318 1.77380229,1.40730643 1.77380229,2.90366123 L1.77380229,9.34949737 L0.954825496,9.34949737 C0.486838762,9.34949737 0.0188519949,9.80991422 0.0188519949,10.2703311 C0.0188519949,10.730748 0.369842054,11.1911649 0.954825496,11.1911649 L1.890799,11.1911649 L1.890799,17.0614799 L0.954825496,17.0614799 C0.486838762,17.0614799 0.0188519949,17.4067925 0.0188519949,17.9823136 C0.0188519949,18.4427305 0.369842054,18.9031474 0.954825496,18.9031474 L1.890799,18.9031474 L1.890799,25.1187751 L1.77380229,25.1187751 Z" id="Shape" fill="#EF8C98" fill-rule="nonzero"></path>
                <text id="¥" opacity="0.697938" font-family="PingFangSC-Semibold, PingFang SC" font-size="21" font-weight="500" fill="#FFFFFF">
                    <tspan x="8" y="23">¥</tspan>
                </text>
            </g>
        </g>
    </g>
</svg>