<?xml version="1.0" encoding="UTF-8"?>
<svg width="28px" height="26px" viewBox="0 0 28 26" version="1.1" xmlns="http://www.w3.org/2000/svg" xmlns:xlink="http://www.w3.org/1999/xlink">
    <!-- Generator: Sketch 52.4 (67378) - http://www.bohemiancoding.com/sketch -->
    <title>Star</title>
    <desc>Created with Sketch.</desc>
    <g id="Page-1" stroke="none" stroke-width="1" fill="none" fill-rule="evenodd">
        <g id="会员中心" transform="translate(-293.000000, -314.000000)" fill="#FFE40E" fill-rule="nonzero">
            <path d="M306.506738,335.759323 L300.084302,339.135798 C299.566126,339.408219 298.925222,339.208995 298.652801,338.69082 C298.544321,338.48448 298.506888,338.248134 298.546295,338.018371 L299.772872,330.866882 C299.831848,330.523025 299.717846,330.172164 299.468019,329.928643 L294.272159,324.863931 C293.852946,324.4553 293.844368,323.784199 294.253,323.364987 C294.415719,323.198054 294.62893,323.089418 294.859625,323.055896 L302.040127,322.012508 C302.38538,321.96234 302.68384,321.745496 302.838241,321.432644 L306.04946,314.926005 C306.308547,314.401036 306.944151,314.185497 307.46912,314.444584 C307.678165,314.547754 307.84737,314.71696 307.95054,314.926005 L311.161759,321.432644 C311.31616,321.745496 311.61462,321.96234 311.959873,322.012508 L319.140375,323.055896 C319.719713,323.140079 320.121115,323.677968 320.036932,324.257305 C320.00341,324.488001 319.894774,324.701212 319.727841,324.863931 L314.531981,329.928643 C314.282154,330.172164 314.168152,330.523025 314.227128,330.866882 L315.453705,338.018371 C315.552667,338.595367 315.165144,339.143341 314.588148,339.242303 C314.358385,339.281711 314.122038,339.244277 313.915698,339.135798 L307.493262,335.759323 C307.184458,335.596975 306.815542,335.596975 306.506738,335.759323 Z" id="Star"></path>
        </g>
    </g>
</svg>