<?xml version="1.0" encoding="UTF-8"?>
<svg width="22px" height="20px" viewBox="0 0 22 20" version="1.1" xmlns="http://www.w3.org/2000/svg" xmlns:xlink="http://www.w3.org/1999/xlink">
    <!-- Generator: Sketch 52.4 (67378) - http://www.bohemiancoding.com/sketch -->
    <title>Star</title>
    <desc>Created with Sketch.</desc>
    <g id="Page-1" stroke="none" stroke-width="1" fill="none" fill-rule="evenodd">
        <g id="首页-详情-产品详情" transform="translate(-316.000000, -87.000000)" fill="#FFFFFF" fill-rule="nonzero">
            <g id="数据1" transform="translate(16.000000, 63.000000)">
                <path d="M310.605391,41.2074584 L305.467441,43.9086382 C305.052901,44.1265749 304.540177,43.9671962 304.322241,43.552656 C304.235457,43.387584 304.20551,43.198507 304.237036,43.0146966 L305.218297,37.2935059 C305.265478,37.0184197 305.174277,36.7377315 304.974415,36.5429144 L300.817727,32.4911447 C300.482357,32.1642396 300.475495,31.6273596 300.8024,31.2919895 C300.932575,31.1584434 301.103144,31.0715343 301.2877,31.0447167 L307.032102,30.2100062 C307.308304,30.1698717 307.547072,29.9963968 307.670593,29.7461152 L310.239568,24.5408039 C310.446838,24.1208288 310.955321,23.9483973 311.375296,24.1556674 C311.542532,24.2382035 311.677896,24.3735676 311.760432,24.5408039 L314.329407,29.7461152 C314.452928,29.9963968 314.691696,30.1698717 314.967898,30.2100062 L320.7123,31.0447167 C321.17577,31.1120628 321.496892,31.5423743 321.429546,32.0058444 C321.402728,32.1904006 321.315819,32.3609694 321.182273,32.4911447 L317.025585,36.5429144 C316.825723,36.7377315 316.734522,37.0184197 316.781703,37.2935059 L317.762964,43.0146966 C317.842134,43.4762939 317.532115,43.9146725 317.070518,43.9938426 C316.886708,44.0253686 316.697631,43.9954217 316.532559,43.9086382 L311.394609,41.2074584 C311.147567,41.0775803 310.852433,41.0775803 310.605391,41.2074584 Z" id="Star"></path>
            </g>
        </g>
    </g>
</svg>